<svg width="177" height="43" viewBox="0 0 177 43" fill="none" xmlns="http://www.w3.org/2000/svg">
<rect width="43" height="43" rx="13.2308" fill="url(#paint0_linear)"/>
<path fill-rule="evenodd" clip-rule="evenodd" d="M27.7751 42.858V11.4563L17.3966 15.1174C16.4881 15.4378 15.4991 14.917 15.2492 13.9866L13.5998 7.8444C13.3836 7.03925 13.8005 6.19906 14.5724 5.88416L28.9935 0.000915527C32.1256 0.146613 34.2517 0.518783 36.0303 1.46946C36.7821 1.87132 37.4896 2.34288 38.1445 2.87587V39.9385C37.4896 40.4715 36.7821 40.943 36.0303 41.3449C34.0301 42.414 31.5906 42.7515 27.7751 42.858Z" fill="#FFF3CE"/>
<path d="M66.8581 31.6054C64.1789 31.6054 62.095 30.9207 60.6065 29.5513C59.1181 28.1819 58.3739 26.108 58.3739 23.3295V11.2134C58.3739 10.9951 58.4334 10.8165 58.5525 10.6776C58.6914 10.5387 58.87 10.4692 59.0883 10.4692H61.7973C62.0156 10.4692 62.1843 10.5387 62.3034 10.6776C62.4423 10.8165 62.5118 10.9951 62.5118 11.2134V23.3295C62.5118 24.9172 62.8889 26.1179 63.643 26.9316C64.3972 27.7254 65.4689 28.1224 66.8581 28.1224C68.2473 28.1224 69.3091 27.7254 70.0434 26.9316C70.7975 26.1179 71.1746 24.9172 71.1746 23.3295V11.2134C71.1746 10.9951 71.2441 10.8165 71.383 10.6776C71.5219 10.5387 71.7005 10.4692 71.9189 10.4692H74.5981C74.8164 10.4692 74.9851 10.5387 75.1042 10.6776C75.2431 10.8165 75.3125 10.9951 75.3125 11.2134V23.3295C75.3125 26.108 74.5683 28.1819 73.0799 29.5513C71.6112 30.9207 69.5373 31.6054 66.8581 31.6054ZM80.1319 31.3077C79.9334 31.3077 79.7647 31.2382 79.6258 31.0993C79.4869 30.9604 79.4174 30.7917 79.4174 30.5932V16.5421C79.4174 16.3437 79.4869 16.175 79.6258 16.0361C79.7647 15.8971 79.9334 15.8277 80.1319 15.8277H82.573C82.7714 15.8277 82.9401 15.8971 83.0791 16.0361C83.218 16.175 83.2874 16.3437 83.2874 16.5421V17.7627C84.4584 16.2742 86.1155 15.53 88.2589 15.53C90.0847 15.53 91.5335 16.1353 92.6052 17.3459C93.6769 18.5367 94.2128 20.1641 94.2128 22.2281V30.5932C94.2128 30.7917 94.1433 30.9604 94.0044 31.0993C93.8853 31.2382 93.7166 31.3077 93.4983 31.3077H90.8786C90.6801 31.3077 90.5114 31.2382 90.3725 31.0993C90.2336 30.9604 90.1641 30.7917 90.1641 30.5932V22.4067C90.1641 21.2358 89.8764 20.3328 89.3008 19.6977C88.7451 19.0428 87.9314 18.7153 86.8598 18.7153C85.8079 18.7153 84.9744 19.0428 84.3591 19.6977C83.7637 20.3526 83.4661 21.2556 83.4661 22.4067V30.5932C83.4661 30.7917 83.3966 30.9604 83.2577 31.0993C83.1386 31.2382 82.9699 31.3077 82.7516 31.3077H80.1319ZM104.841 31.6054C102.519 31.6054 100.723 31.01 99.4528 29.8192C98.1827 28.6086 97.498 26.9614 97.3988 24.8775L97.369 23.5677L97.3988 22.2578C97.498 20.1938 98.1926 18.5565 99.4826 17.3459C100.773 16.1353 102.559 15.53 104.841 15.53C107.123 15.53 108.91 16.1353 110.2 17.3459C111.49 18.5565 112.184 20.1938 112.283 22.2578C112.303 22.496 112.313 22.9326 112.313 23.5677C112.313 24.2028 112.303 24.6394 112.283 24.8775C112.184 26.9614 111.499 28.6086 110.229 29.8192C108.959 31.01 107.163 31.6054 104.841 31.6054ZM104.841 28.6582C105.893 28.6582 106.707 28.3308 107.282 27.6758C107.858 27.0011 108.175 26.0187 108.235 24.7287C108.255 24.5302 108.265 24.1432 108.265 23.5677C108.265 22.9921 108.255 22.6051 108.235 22.4067C108.175 21.1167 107.858 20.1442 107.282 19.4893C106.707 18.8145 105.893 18.4771 104.841 18.4771C103.789 18.4771 102.976 18.8145 102.4 19.4893C101.824 20.1442 101.507 21.1167 101.447 22.4067L101.418 23.5677L101.447 24.7287C101.507 26.0187 101.824 27.0011 102.4 27.6758C102.976 28.3308 103.789 28.6582 104.841 28.6582ZM122.491 31.3077C120.685 31.3077 119.325 30.8413 118.413 29.9085C117.519 28.9559 117.073 27.5667 117.073 25.7408V18.9832H114.721C114.523 18.9832 114.354 18.9138 114.215 18.7748C114.076 18.6161 114.007 18.4374 114.007 18.239V16.5421C114.007 16.3437 114.076 16.175 114.215 16.0361C114.354 15.8971 114.523 15.8277 114.721 15.8277H117.073V10.886C117.073 10.6677 117.142 10.499 117.281 10.3799C117.42 10.241 117.589 10.1715 117.787 10.1715H120.199C120.417 10.1715 120.586 10.241 120.705 10.3799C120.844 10.499 120.913 10.6677 120.913 10.886V15.8277H124.634C124.853 15.8277 125.021 15.8971 125.14 16.0361C125.279 16.1551 125.349 16.3238 125.349 16.5421V18.239C125.349 18.4573 125.279 18.6359 125.14 18.7748C125.001 18.9138 124.833 18.9832 124.634 18.9832H120.913V25.4431C120.913 26.2965 121.062 26.9415 121.36 27.3781C121.657 27.8148 122.154 28.0331 122.848 28.0331H124.902C125.101 28.0331 125.269 28.1025 125.408 28.2414C125.547 28.3804 125.617 28.5491 125.617 28.7475V30.5932C125.617 30.7917 125.547 30.9604 125.408 31.0993C125.289 31.2382 125.121 31.3077 124.902 31.3077H122.491ZM132.753 31.6054C131.741 31.6054 130.808 31.4069 129.954 31.01C129.121 30.5932 128.456 30.0375 127.96 29.3429C127.484 28.6483 127.245 27.8842 127.245 27.0507C127.245 25.7011 127.791 24.6096 128.883 23.7761C129.974 22.9425 131.473 22.3769 133.378 22.0792L137.456 21.4838V20.8587C137.456 19.9854 137.238 19.3305 136.801 18.8939C136.365 18.4573 135.66 18.239 134.688 18.239C134.033 18.239 133.497 18.368 133.08 18.626C132.683 18.8641 132.366 19.1023 132.128 19.3404C131.889 19.5984 131.731 19.7671 131.651 19.8465C131.572 20.0847 131.423 20.2038 131.205 20.2038H128.913C128.734 20.2038 128.575 20.1442 128.436 20.0251C128.317 19.9061 128.258 19.7473 128.258 19.5488C128.277 19.0527 128.516 18.4871 128.972 17.852C129.448 17.2169 130.173 16.6711 131.145 16.2147C132.118 15.7582 133.308 15.53 134.718 15.53C137.059 15.53 138.766 16.0559 139.838 17.1078C140.91 18.1596 141.445 19.5389 141.445 21.2457V30.5932C141.445 30.7917 141.376 30.9604 141.237 31.0993C141.118 31.2382 140.949 31.3077 140.731 31.3077H138.32C138.121 31.3077 137.952 31.2382 137.814 31.0993C137.675 30.9604 137.605 30.7917 137.605 30.5932V29.4322C137.169 30.0673 136.543 30.5932 135.73 31.01C134.936 31.4069 133.944 31.6054 132.753 31.6054ZM133.765 28.7773C134.856 28.7773 135.75 28.4201 136.444 27.7056C137.139 26.9911 137.486 25.9492 137.486 24.5798V23.9547L134.509 24.431C133.358 24.6096 132.485 24.8974 131.889 25.2943C131.314 25.6912 131.026 26.1774 131.026 26.753C131.026 27.3881 131.294 27.8842 131.83 28.2414C132.366 28.5987 133.011 28.7773 133.765 28.7773ZM151.129 31.6054C149.64 31.6054 148.39 31.3871 147.378 30.9504C146.366 30.494 145.612 29.9681 145.116 29.3727C144.639 28.7574 144.401 28.2315 144.401 27.7949C144.401 27.5964 144.471 27.4377 144.609 27.3186C144.748 27.1995 144.907 27.14 145.086 27.14H147.438C147.616 27.14 147.765 27.2094 147.884 27.3484C147.963 27.4079 148.172 27.5865 148.509 27.8842C148.847 28.2018 149.244 28.4498 149.7 28.6284C150.156 28.8071 150.663 28.8964 151.218 28.8964C152.012 28.8964 152.667 28.7376 153.183 28.4201C153.699 28.1025 153.957 27.6659 153.957 27.1102C153.957 26.6934 153.838 26.3561 153.6 26.0981C153.381 25.8401 152.975 25.6118 152.379 25.4134C151.784 25.1951 150.901 24.9668 149.73 24.7287C148.043 24.3714 146.793 23.8257 145.979 23.0914C145.185 22.3571 144.788 21.3846 144.788 20.174C144.788 19.3801 145.026 18.6359 145.503 17.9413C145.979 17.2268 146.683 16.6513 147.616 16.2147C148.569 15.7582 149.7 15.53 151.01 15.53C152.34 15.53 153.491 15.7483 154.463 16.1849C155.436 16.6017 156.17 17.1078 156.666 17.7031C157.182 18.2787 157.44 18.7947 157.44 19.2511C157.44 19.4298 157.371 19.5885 157.232 19.7274C157.113 19.8465 156.964 19.9061 156.785 19.9061H154.582C154.423 19.9061 154.255 19.8366 154.076 19.6977C153.937 19.5984 153.719 19.4099 153.421 19.1321C153.123 18.8542 152.776 18.6359 152.379 18.4771C151.982 18.3184 151.516 18.239 150.98 18.239C150.246 18.239 149.67 18.3978 149.253 18.7153C148.857 19.0328 148.658 19.4496 148.658 19.9656C148.658 20.3427 148.757 20.6503 148.956 20.8884C149.154 21.1266 149.541 21.3548 150.117 21.5731C150.692 21.7914 151.556 22.0098 152.707 22.2281C154.612 22.6051 155.971 23.1906 156.785 23.9844C157.619 24.7783 158.035 25.7508 158.035 26.9018C158.035 28.2911 157.43 29.4223 156.219 30.2955C155.009 31.1688 153.312 31.6054 151.129 31.6054ZM161.853 31.3077C161.654 31.3077 161.485 31.2382 161.347 31.0993C161.208 30.9604 161.138 30.7917 161.138 30.5932V10.886C161.138 10.6677 161.208 10.499 161.347 10.3799C161.485 10.241 161.654 10.1715 161.853 10.1715H164.264C164.482 10.1715 164.651 10.241 164.77 10.3799C164.909 10.499 164.978 10.6677 164.978 10.886V21.0671L169.98 16.3338C170.039 16.2941 170.138 16.2147 170.277 16.0956C170.396 15.9964 170.515 15.9269 170.635 15.8872C170.754 15.8475 170.902 15.8277 171.081 15.8277H173.85C174.048 15.8277 174.207 15.8872 174.326 16.0063C174.445 16.1254 174.505 16.2841 174.505 16.4826C174.505 16.6612 174.405 16.8398 174.207 17.0184L168.074 22.7639L174.951 30.1467C175.15 30.3451 175.249 30.5138 175.249 30.6528C175.249 30.8512 175.179 31.01 175.04 31.1291C174.921 31.2481 174.772 31.3077 174.594 31.3077H171.766C171.488 31.3077 171.28 31.2779 171.141 31.2184C171.022 31.139 170.863 31.0001 170.664 30.8016L164.978 24.818V30.5932C164.978 30.7917 164.909 30.9604 164.77 31.0993C164.651 31.2382 164.482 31.3077 164.264 31.3077H161.853Z" fill="#611616"/>
<defs>
<linearGradient id="paint0_linear" x1="21.5" y1="0" x2="21.5" y2="43" gradientUnits="userSpaceOnUse">
<stop stop-color="#F9AE42"/>
<stop offset="1" stop-color="#F38B39"/>
</linearGradient>
</defs>
</svg>
